<?xml version="1.0" encoding="utf-8"?>
<!-- Generator: Adobe Illustrator 23.0.6, SVG Export Plug-In . SVG Version: 6.00 Build 0)  -->
<svg version="1.1" id="Warstwa_1" xmlns="http://www.w3.org/2000/svg" xmlns:xlink="http://www.w3.org/1999/xlink" x="0px" y="0px"
	 viewBox="0 0 158.2 112" style="enable-background:new 0 0 158.2 112;" xml:space="preserve">
<style type="text/css">
	.st0{fill:#fff;}
	.st1{fill:#fff;}
</style>
<g>
	<g>
		<g>
			<path class="st0" d="M74.8,109.8v1.8c-0.5,0-0.9,0-1.4,0v-5.4c1.1,0,2.3,0,3.4,0c0,0.5,0,0.8,0,1.2h-2v1.2h1.7c0,0.5,0,0.8,0,1.2
				H74.8z"/>
			<path class="st0" d="M79.9,108.9c0-3.8,5.6-3.8,5.6,0C85.5,112.7,79.9,112.7,79.9,108.9z M84,108.9c0-2-2.7-2-2.7,0
				C81.3,110.9,84,110.9,84,108.9z"/>
			<path class="st0" d="M93.4,111.4v0.2h-1.6l-0.9-1.6h-0.7v1.6c-0.5,0-0.9,0-1.4,0c0-1.8,0-3.6,0-5.4c0.8,0,1.6,0,2.4,0
				c2.1,0,2.5,2.6,1.1,3.5L93.4,111.4z M91.2,107.4c-0.3,0-0.7,0-1,0c0,0.4,0,0.9,0,1.3h1C92,108.8,92,107.4,91.2,107.4z"/>
			<path class="st0" d="M104.2,110.9h-2.1l-0.3,0.7h-1.4v-0.2l2.4-5.3h0.6l2.5,5.3v0.2h-1.4L104.2,110.9z M103.1,108.3l-0.6,1.4h1.2
				L103.1,108.3z"/>
			<path class="st0" d="M115.8,106.1c1.1,0,2.3,0.6,2.6,2.1c-0.5,0-0.9,0-1.4,0c-0.2-0.6-0.6-0.8-1.2-0.8c-0.8,0-1.4,0.6-1.4,1.5
				c0,0.8,0.5,1.5,1.4,1.5c0.6,0,1.1-0.3,1.2-0.9c0.5,0,0.9,0,1.4,0c-0.2,1.5-1.4,2.1-2.6,2.1c-1.4,0-2.8-0.9-2.8-2.8
				C113.1,107,114.5,106.1,115.8,106.1z"/>
			<path class="st0" d="M126.3,111.6c-0.5,0-0.9,0-1.4,0v-2.2h-1.7v2.2c-0.5,0-1,0-1.4,0v-5.4c0.5,0,0.9,0,1.4,0v2h1.7v-2
				c0.5,0,0.9,0,1.4,0V111.6z"/>
			<path class="st0" d="M133.2,110.9h-2.1l-0.3,0.7h-1.4v-0.2l2.4-5.3h0.6l2.5,5.3v0.2h-1.4L133.2,110.9z M132.1,108.3l-0.6,1.4h1.2
				L132.1,108.3z"/>
			<path class="st0" d="M139.4,108.9v2.7c-0.5,0-1,0-1.4,0v-5.5h0.5l2.7,2.7v-2.7c0.5,0,0.9,0,1.4,0v5.4h-0.5L139.4,108.9z"/>
			<path class="st0" d="M148.8,106.1c1.1,0,2.2,0.6,2.5,1.9h-1.4c-0.2-0.5-0.6-0.6-1.1-0.6c-0.9,0-1.3,0.7-1.3,1.5
				c0,0.9,0.5,1.5,1.3,1.5c0.6,0,0.9-0.1,1.2-0.7h-1.2v-1.2h2.6c0,0.5,0,1.1-0.2,1.6c-0.4,1.1-1.4,1.6-2.4,1.6
				c-1.4,0-2.8-0.9-2.8-2.8C146,107,147.4,106.1,148.8,106.1z"/>
			<path class="st0" d="M158.2,107.4c-0.8,0-1.2,0-2,0v0.8h1.8c0,0.4,0,0.8,0,1.2h-1.8c0,0.3,0,0.6,0,1c0.8,0,1.3,0,2.1,0
				c0,0.4,0,0.8,0,1.2c-1.3,0-2.2,0-3.5,0c0-1.8,0-3.6,0-5.4c1.3,0,2.1,0,3.4,0C158.2,106.6,158.2,107,158.2,107.4z"/>
		</g>
		<g>
			<path class="st0" d="M89,90.7v0.7h-5.3L80.6,86h-2.4v5.4c-1.6,0-3.2,0-4.7,0c0-6.1,0-12.2,0-18.4c2.7,0,5.4,0,8.1,0
				c7.2,0,8.5,8.7,3.9,11.9L89,90.7z M81.5,77.2c-1.1,0-2.3,0-3.4,0c0,1.5,0,3.1,0,4.6h3.4C84,81.8,84.2,77.2,81.5,77.2z"/>
			<path class="st0" d="M98.9,73c4.3,0,7.2,0,11.5,0c0,6.1,0,12.2,0,18.4c-4.3,0-7.4,0-11.7,0c0-1.4,0-2.8,0-4.2c2.8,0,4.3,0,7,0
				c0-1.1,0-2.2,0-3.2h-6.3c0-1.4,0-2.8,0-4.2h6.3v-2.6c-2.7,0-4.1,0-6.8,0C98.9,75.8,98.9,74.3,98.9,73z"/>
			<path class="st0" d="M131.9,89.1h-7.3l-1.1,2.3h-4.6v-0.7l8.3-17.9h2l8.3,17.9v0.7h-4.6L131.9,89.1z M128.2,80.2l-2.1,4.8h4.2
				L128.2,80.2z"/>
			<path class="st0" d="M151.5,87.1h6.7c0,1.6,0,2.7,0,4.2c-3.8,0-7.7,0-11.4,0V73c1.6,0,3.1,0,4.7,0
				C151.5,82.5,151.5,79.3,151.5,87.1z"/>
		</g>
		<g>
			<path class="st0" d="M35.2,91.4c-1.4,0-2.9,0-4.4,0v-3.5h-8v-2.1L30.2,73h5V84h1.6c0,1.3,0,2.6,0,3.8h-1.6V91.4z M28.1,84h2.9
				v-2.8l0.3-2.8h-0.1L28.1,84z"/>
		</g>
	</g>
	<path class="st1" d="M84.8,9.1C79,3.2,71.2,0,63,0c-8.3,0-16,3.2-21.9,9.1C35.2,14.9,32,22.7,32,30.9c0,2.8,0.4,5.5,1.1,8.1h12.5
		c-1.1-2.5-1.8-5.2-1.8-8.1c0-10.6,8.6-19.2,19.2-19.2c10.6,0,19.2,8.6,19.2,19.2c0,10.6-8.6,19.2-19.2,19.2c-0.1,0-0.1,0-0.2,0v0
		H30.5l0,0c-8.1,0.1-15.7,3.3-21.4,9C3.2,65,0,72.8,0,81.1c0,8.3,3.2,16,9.1,21.9c5.8,5.8,13.6,9.1,21.9,9.1c8.3,0,16-3.2,21.9-9.1
		c5.8-5.8,9.1-13.6,9.1-21.9c0-2.8-0.4-5.5-1.1-8.1H48.3c1.1,2.5,1.8,5.2,1.8,8.1c0,10.6-8.6,19.2-19.2,19.2
		c-10.6,0-19.2-8.6-19.2-19.2c0-10.6,8.6-19.2,19.2-19.2v0h24.3h8.2l0,0c8.1-0.1,15.7-3.3,21.4-9c5.8-5.8,9.1-13.6,9.1-21.9
		C93.9,22.7,90.7,14.9,84.8,9.1z"/>
</g>
</svg>
