<svg width="192" height="41" viewBox="0 0 192 41" fill="none" xmlns="http://www.w3.org/2000/svg">
<path d="M0.755438 33.2507C0.755438 27.2964 0.756065 22.8777 1.05098 19.3829C1.34511 15.8974 1.92791 13.3999 3.05335 11.2743C4.90775 7.77194 7.77194 4.90775 11.2743 3.05335C13.3999 1.92791 15.8974 1.34511 19.3829 1.05098C22.8777 0.756065 27.2964 0.755438 33.2507 0.755438H171.862C182.501 0.755438 191.126 9.38007 191.126 20.0191C191.126 30.6581 182.501 39.2828 171.862 39.2828H0.755438V33.2507Z" stroke="white" stroke-width="1.51088"/>
<path d="M28.3207 19.7366H36.4263V26.5825H33.9983L33.8522 24.5744C33.2193 25.2681 32.4161 25.8097 31.4424 26.1991C30.4688 26.5764 29.3248 26.7651 28.0103 26.7651C26.4403 26.7651 25.0833 26.5095 23.9393 25.9983C22.8074 25.4872 21.9372 24.7448 21.3287 23.7711C20.7202 22.7853 20.4159 21.5926 20.4159 20.193C20.4159 18.0753 21.1157 16.4505 22.5153 15.3187C23.915 14.1868 25.9292 13.6209 28.558 13.6209C31.053 13.6209 32.9638 14.0773 34.2904 14.9901C35.6169 15.8907 36.3289 17.1564 36.4263 18.7873H33.0855C32.9638 18.1422 32.5621 17.5824 31.8806 17.1077C31.2112 16.6209 30.1037 16.3775 28.558 16.3775C26.6716 16.3775 25.3876 16.767 24.706 17.5459C24.0367 18.3126 23.702 19.2193 23.702 20.266C23.702 21.3248 24.0367 22.2498 24.706 23.0409C25.3876 23.832 26.6716 24.2275 28.558 24.2275C29.5438 24.2275 30.3714 24.1058 31.0408 23.8624C31.7224 23.619 32.2274 23.3147 32.556 22.9496C32.8847 22.5845 33.0611 22.2255 33.0855 21.8725H28.3207V19.7366ZM52.7901 19.0794V21.6717H38.1854V19.0794H52.7901ZM54.5386 20.1747C54.5386 18.0084 55.1837 16.3775 56.4738 15.2822C57.776 14.1746 59.8085 13.6209 62.5712 13.6209C67.5611 13.6209 70.2204 15.4951 70.549 19.2437H67.2082C67.0621 18.2335 66.6057 17.5033 65.839 17.053C65.0723 16.6027 63.983 16.3775 62.5712 16.3775C60.916 16.3775 59.7111 16.6818 58.9566 17.2903C58.202 17.8988 57.8247 18.8603 57.8247 20.1747C57.8247 21.5013 58.202 22.475 58.9566 23.0957C59.7111 23.7042 60.916 24.0084 62.5712 24.0084C63.9708 24.0084 65.054 23.7772 65.8207 23.3147C66.5997 22.8522 67.0621 22.1159 67.2082 21.1058H70.549C70.2204 24.8786 67.5611 26.7651 62.5712 26.7651C59.8085 26.7651 57.776 26.2113 56.4738 25.1038C55.1837 23.9963 54.5386 22.3533 54.5386 20.1747ZM86.6802 18.4952C86.6802 19.5175 86.4307 20.406 85.9317 21.1605C85.4449 21.9029 84.7694 22.4445 83.9053 22.7853L86.2603 26.5825H82.3901L80.3271 23.1687H75.033V26.5825H71.7469V13.8034H81.7876C82.7491 13.8034 83.601 13.9982 84.3434 14.3876C85.0858 14.7771 85.6579 15.3248 86.0595 16.0306C86.4733 16.7365 86.6802 17.5581 86.6802 18.4952ZM75.033 20.412H80.8748C81.3495 20.412 81.7572 20.3816 82.098 20.3208C82.4387 20.2477 82.7369 20.0713 82.9925 19.7913C83.2603 19.5114 83.3941 19.0794 83.3941 18.4952C83.3941 17.8988 83.2603 17.4607 82.9925 17.1808C82.7369 16.9008 82.4387 16.7305 82.098 16.6696C81.7572 16.5966 81.3495 16.5601 80.8748 16.5601H75.033V20.412ZM91.0425 16.414V19.0063H101.266V21.3796H91.0425V23.9719H101.266V26.5825H87.7564V13.8034H101.266V16.414H91.0425ZM114.915 23.8624H107.266L105.897 26.5825H102.282L108.872 13.8034H113.308L119.917 26.5825H116.284L114.915 23.8624ZM113.692 21.4161L111.1 16.2315L108.489 21.4161H113.692ZM132.797 16.5601H126.59V26.5825H123.304V16.5601H117.097V13.8034H132.797V16.5601ZM137.163 26.5825H133.877V13.8034H137.163V26.5825ZM155.644 13.8034L149.072 26.5825H144.581L138.009 13.8034H141.697L146.827 24.1545L151.957 13.8034H155.644ZM159.716 16.414V19.0063H169.939V21.3796H159.716V23.9719H169.939V26.5825H156.43V13.8034H169.939V16.414H159.716Z" fill="white"/>
</svg>
