<svg width="158" height="52" xmlns="http://www.w3.org/2000/svg" viewBox="0 0 838.54 277.13" fill="none"><g clip-path="url(#clip0_42_5839)"><path d="M130.17 199.62H2.82V5.41h38.84v158.14h88.5v36.07Zm64.48-6.52c-11.93-6.56-21.09-15.81-27.47-27.74q-9.57-17.895-9.57-40.92V5.41h38.84v116.8c0 13.32 3.47 24.09 10.4 32.32 6.94 8.23 16.78 12.35 29.55 12.35s22.89-4.11 29.82-12.35c6.94-8.23 10.4-19 10.4-32.32V5.41h38.84v119.02c0 15.36-3.24 28.99-9.71 40.92-6.48 11.93-15.68 21.18-27.61 27.74s-25.85 9.85-41.76 9.85-29.83-3.29-41.76-9.85Zm283.94-45.36L539.63 5.41h48.55v194.21h-38.29V67.56l-56.88 132.06h-29.69L406.44 67.56v132.06h-38.29V5.41h49.11l61.32 142.33Zm261.27 57.05h-.08c-4.37.29-8.8.31-13.16.06l2.19-39.4c2.79.16 5.61.14 8.41-.04h.08zm13.17-1.68-7.35-38.77c2.77-.53 5.51-1.23 8.16-2.09l12.07 37.56c-4.19 1.36-8.53 2.46-12.88 3.29Zm-39.61.18c-4.39-.8-8.76-1.89-12.97-3.23l11.9-37.61c2.62.84 5.35 1.51 8.1 2.02l-7.03 38.83Zm64.92-8.39-16.74-35.72c2.5-1.18 4.92-2.52 7.21-4l21.31 33.18c-3.75 2.42-7.71 4.61-11.78 6.53Zm-90.43.23a99 99 0 0 1-11.84-6.61l21.5-33.05c2.25 1.47 4.64 2.8 7.1 3.96zM801 180.25l-25.67-29.92a57 57 0 0 0 5.73-5.67l29.64 25.99c-2.99 3.4-6.25 6.64-9.7 9.6m-135.8.04a98 98 0 0 1-9.62-9.69l29.91-25.69c1.75 2.03 3.65 3.94 5.66 5.7zm153.75-20.52-33.04-21.51c1.46-2.24 2.79-4.62 3.94-7.07l35.72 16.71c-1.93 4.11-4.16 8.1-6.62 11.87m-171.5-.07c-2.4-3.73-4.6-7.69-6.52-11.78l35.74-16.71a61 61 0 0 0 3.99 7.21zm183.03-24.34-37.63-11.85c.83-2.63 1.52-5.39 2.05-8.2l38.8 7.2c-.82 4.38-1.9 8.71-3.22 12.86Zm-194.44.24c-1.33-4.05-2.46-8.28-3.35-12.58l38.63-8.08c.6 2.9 1.36 5.73 2.24 8.41l-37.52 12.24Zm199.34-26-39.35-2.93c.21-2.89.28-5.9.21-8.94l17.02-.27L835.64 96l.03.47v.42c.12 4.29.02 8.57-.29 12.71m-204.66.84-.06-.62-.03-.41c-.29-4.4-.29-8.86-.02-13.24l39.38 2.48c-.17 2.71-.17 5.47.01 8.2l-14.87.96zm164.47-20.08c-.53-2.7-1.25-5.39-2.13-7.98l37.36-12.67c1.43 4.23 2.6 8.6 3.47 12.99zm-124.14.1-38.72-7.63c.86-4.39 2.03-8.77 3.47-13.01l37.37 12.66c-.88 2.6-1.6 5.29-2.13 7.98ZM789.9 74.75c-1.21-2.46-2.6-4.86-4.13-7.15l32.78-21.96c2.49 3.71 4.75 7.63 6.73 11.63l-35.37 17.48Zm-113.57.09-35.39-17.45c1.97-4 4.23-7.92 6.71-11.64l32.82 21.91a65 65 0 0 0-4.14 7.17Zm104.39-13.8a65 65 0 0 0-5.86-5.86l26.02-29.67c3.35 2.94 6.55 6.14 9.49 9.49l-29.64 26.04Zm-95.21.05-29.7-25.99c2.94-3.36 6.12-6.56 9.47-9.5l26.08 29.62c-2.07 1.82-4.04 3.8-5.85 5.87m82.78-10.96c-2.29-1.53-4.7-2.93-7.17-4.15l17.49-35.37c4 1.98 7.91 4.24 11.63 6.73zm-70.37.03L675.91 17.4c3.71-2.49 7.62-4.76 11.62-6.74l17.53 35.36a63 63 0 0 0-7.14 4.14m55.56-7.35c-2.6-.88-5.28-1.6-7.97-2.14l7.68-38.71c4.39.87 8.77 2.04 13.01 3.49l-12.71 37.36Zm-40.8.03L699.96 5.48c4.23-1.44 8.6-2.61 12.99-3.49l7.71 38.7c-2.7.54-5.38 1.26-7.98 2.14Zm24.64-3.24c-2.74-.18-5.53-.18-8.3 0h-.13L726.22.23l.23-.02c4.46-.29 8.97-.29 13.41 0l-2.53 39.38ZM0 239.06h13.86c8.3 0 13.05 3.77 13.05 9.98 0 4.47-2.53 7.17-6.47 8.25 4.48.7 7.93 3.34 7.93 8.74 0 6.69-4.91 10.78-14.02 10.78H0v-37.74Zm6.2 5.18v10.84h7.82c4.26 0 6.69-2.05 6.69-5.45s-2.37-5.39-6.69-5.39zm0 15.96v11.38h8.2c4.96 0 7.6-2.1 7.6-5.61 0-3.72-2.8-5.77-7.6-5.77zm30.68-21.14h7.28l9.92 17.26 10.19-17.26h6.96l-14.07 23.78v13.97h-6.2v-13.97l-14.07-23.78Zm70.86 0h14.88c7.87 0 13.05 4.69 13.05 12.02s-5.18 12.02-13.05 12.02h-8.68v13.7h-6.2zm6.2 5.39v13.27h8.14c4.42 0 7.28-2.59 7.28-6.63s-2.8-6.63-7.23-6.63h-8.2Zm35.96-5.39h24.64v5.5H156.1v10.46h15.21v5.34H156.1v10.95h19.09v5.5H149.9v-37.74Zm39.85 0h14.88c7.87 0 13.16 4.69 13.16 12.02 0 5.07-2.91 9.11-7.33 10.68l7.98 15.04h-6.9l-7.28-13.7h-8.3v13.7h-6.2v-37.74Zm6.2 5.39v13.27h8.2c4.42 0 7.28-2.59 7.28-6.63s-2.86-6.63-7.28-6.63h-8.2Zm36.88-5.39h24.1v5.5h-17.9v10.95h14.77v5.34h-14.77v15.96h-6.2v-37.74Zm53.76 38.07c-10.84 0-18.33-8.14-18.33-19.2s7.49-19.2 18.33-19.2 18.33 8.14 18.33 19.2-7.49 19.2-18.33 19.2m0-5.45c7.17 0 11.97-5.77 11.97-13.75s-4.8-13.75-11.97-13.75-11.97 5.77-11.97 13.75 4.8 13.75 11.97 13.75m33.27-32.62h14.88c7.87 0 13.16 4.69 13.16 12.02 0 5.07-2.91 9.11-7.33 10.68l7.98 15.04h-6.9l-7.28-13.7h-8.3v13.7h-6.2v-37.74Zm6.2 5.39v13.27h8.2c4.42 0 7.28-2.59 7.28-6.63s-2.86-6.63-7.28-6.63h-8.2Zm36.89-5.39h8.03l12.08 29.71 11.86-29.71h7.87v37.74h-5.99v-27.77l-11.32 27.77h-5.23l-11.32-27.77v27.77h-5.99v-37.74Zm53.22 37.74 14.13-37.74h7.39l14.07 37.74h-6.63l-3.56-9.33h-15.48l-3.51 9.33h-6.42Zm11.64-14.61h12.02l-6.04-16.45-5.99 16.45Zm37.32 14.61v-37.74h5.66l18.39 26.74v-26.74h6.09v37.74h-5.66l-18.39-26.75v26.75zm45.08-18.87c0-11.48 7.06-19.2 18.23-19.2 8.63 0 14.83 5.18 16.07 13.16h-6.42c-1.24-4.75-4.8-7.71-9.92-7.71-7.17 0-11.59 5.66-11.59 13.75s4.31 13.75 11.43 13.75c5.23 0 8.84-2.91 10.03-7.71h6.42c-1.19 7.98-7.6 13.16-16.39 13.16-11 0-17.85-7.6-17.85-19.2Zm48.85-18.87h24.64v5.5h-18.44v10.46h15.21v5.34h-15.21v10.95h19.09v5.5h-25.29v-37.74Zm61.69 18.87c0-11.48 7.12-19.2 18.33-19.2 8.74 0 15.1 5.18 16.23 13.16h-6.42c-1.13-4.8-4.75-7.71-9.98-7.71-7.17 0-11.81 5.66-11.81 13.75s4.53 13.75 11.75 13.75c5.82 0 10.51-3.29 10.84-9.38v-.92h-10.46v-5.23h16.39v20.65h-4.8l-.54-5.07c-1.83 2.7-5.72 5.39-11.7 5.39-10.57 0-17.85-7.71-17.85-19.2Zm51.27-18.87h14.88c7.87 0 13.16 4.69 13.16 12.02 0 5.07-2.91 9.11-7.33 10.68l7.98 15.04h-6.9l-7.28-13.7h-8.31v13.7h-6.2zm6.21 5.39v13.27h8.2c4.42 0 7.28-2.59 7.28-6.63s-2.86-6.63-7.28-6.63h-8.2Zm53.38 32.68c-10.84 0-18.33-8.14-18.33-19.2s7.49-19.2 18.33-19.2 18.33 8.14 18.33 19.2-7.5 19.2-18.33 19.2m0-5.45c7.17 0 11.97-5.77 11.97-13.75s-4.8-13.75-11.97-13.75-11.97 5.77-11.97 13.75 4.8 13.75 11.97 13.75m33.05-32.62h6.2v21.89c0 7.01 2.7 10.68 8.63 10.68s8.73-3.67 8.73-10.68v-21.89h6.2v21.57c0 10.73-5.12 16.5-14.94 16.5s-14.83-5.77-14.83-16.5v-21.57Zm45.95 0h14.88c7.87 0 13.05 4.69 13.05 12.02s-5.18 12.02-13.05 12.02h-8.68v13.7h-6.2zm6.2 5.39v13.27h8.14c4.42 0 7.28-2.59 7.28-6.63s-2.8-6.63-7.23-6.63h-8.2Z" fill="#fffcf4"></path></g></svg>