<svg width="191" height="32" viewBox="0 0 191 32" fill="none" xmlns="http://www.w3.org/2000/svg">
<path fill-rule="evenodd" clip-rule="evenodd" d="M103.675 16.3076C100.717 16.3076 98.319 18.7067 98.319 21.6651C98.319 24.6235 100.717 27.0227 103.675 27.0227C106.632 27.0227 109.031 24.6235 109.031 21.6651C109.031 18.7067 106.632 16.3076 103.675 16.3076ZM61.5039 16.3076C58.5464 16.3076 56.148 18.7067 56.148 21.6651C56.148 24.6235 58.5464 27.0227 61.5039 27.0227C64.4614 27.0227 66.8598 24.6235 66.8598 21.6651C66.8598 18.7067 64.4614 16.3076 61.5039 16.3076ZM26.7238 16.3076C23.7663 16.3076 21.3679 18.7067 21.3679 21.6651C21.3679 24.6235 23.7663 27.0227 26.7238 27.0227C29.6813 27.0227 32.0798 24.6235 32.0798 21.6651C32.0798 18.7067 29.6813 16.3076 26.7238 16.3076ZM173.179 23.4491H176.947L176.042 17.9797L173.174 23.4491H173.179ZM111.463 6.65499C111.865 6.65499 112.24 6.5767 112.587 6.41452C112.933 6.25234 113.241 6.02864 113.509 5.74342C113.777 5.45262 113.984 5.11707 114.13 4.73678C114.281 4.3565 114.353 3.94265 114.353 3.50644C114.353 3.07023 114.281 2.70672 114.13 2.39355C113.979 2.08037 113.761 1.83989 113.47 1.66653C113.179 1.49316 112.816 1.40368 112.385 1.40368C111.994 1.40368 111.619 1.48198 111.273 1.64416C110.926 1.80634 110.619 2.03004 110.35 2.31525C110.082 2.60606 109.875 2.93601 109.73 3.3163C109.579 3.69659 109.506 4.10484 109.506 4.55223C109.506 4.99963 109.584 5.34636 109.741 5.65954C109.897 5.97271 110.121 6.21878 110.412 6.39215C110.703 6.56551 111.055 6.65499 111.463 6.65499ZM111.284 8.0587C110.624 8.0587 110.043 7.91329 109.534 7.61689C109.025 7.32609 108.628 6.92343 108.338 6.41452C108.047 5.9056 107.902 5.32958 107.902 4.68645C107.902 4.04332 108.019 3.42256 108.259 2.85772C108.494 2.29288 108.83 1.79515 109.255 1.36453C109.679 0.939509 110.177 0.603962 110.747 0.363486C111.312 0.123011 111.927 -2.27848e-05 112.575 -2.27848e-05C113.224 -2.27848e-05 113.828 0.145381 114.331 0.441781C114.834 0.732588 115.231 1.13524 115.522 1.63857C115.813 2.14189 115.958 2.7235 115.958 3.37222C115.958 4.02095 115.835 4.63612 115.594 5.20096C115.354 5.76579 115.019 6.26352 114.594 6.69414C114.169 7.11917 113.671 7.45471 113.107 7.69519C112.542 7.93566 111.933 8.0587 111.284 8.0587ZM104.469 7.92448L105.839 0.134196H107.393L106.023 7.92448H104.469ZM98.2519 6.58788H99.3533C99.9963 6.58788 100.544 6.45926 100.986 6.202C101.433 5.94475 101.774 5.58124 102.009 5.11148C102.244 4.64171 102.367 4.08247 102.367 3.43933C102.367 2.99194 102.288 2.62284 102.138 2.33203C101.987 2.04122 101.752 1.82312 101.439 1.67771C101.126 1.53231 100.729 1.45961 100.253 1.45961H99.1632L98.2519 6.58788ZM96.4629 7.92448L97.8326 0.134196H100.567C101.355 0.134196 101.998 0.268415 102.495 0.53126C102.998 0.794105 103.367 1.16321 103.608 1.63297C103.848 2.10274 103.971 2.66758 103.971 3.3163C103.971 3.96502 103.859 4.60816 103.63 5.17299C103.401 5.73783 103.082 6.22437 102.663 6.63822C102.244 7.05206 101.741 7.36523 101.154 7.58893C100.567 7.81263 99.918 7.92448 99.1968 7.92448H96.4629ZM91.8561 8.0587C91.2132 8.0587 90.6765 7.93007 90.2628 7.67841C89.8434 7.42675 89.5527 7.06324 89.385 6.59348C89.2173 6.12371 89.1893 5.55887 89.3011 4.91015L90.1454 0.139788H91.7052L90.861 4.91015C90.7995 5.26806 90.8051 5.57006 90.8721 5.82731C90.9392 6.08456 91.0734 6.2803 91.2859 6.41452C91.4927 6.55433 91.7778 6.62144 92.1301 6.62144C92.4655 6.62144 92.7562 6.55433 93.0134 6.4257C93.2706 6.29708 93.483 6.10693 93.6507 5.85527C93.8241 5.60361 93.9415 5.29043 94.0086 4.91015L94.8528 0.139788H96.407L95.574 4.91015C95.4454 5.62039 95.1994 6.21319 94.836 6.67736C94.467 7.14713 94.0253 7.49386 93.511 7.71756C92.9966 7.94126 92.4431 8.0587 91.8617 8.0587H91.8561ZM83.9508 7.92448L85.1081 1.35894H82.8382L83.0619 0.134196H89.1558L88.9433 1.35894H86.6623L85.505 7.92448H83.9452H83.9508ZM78.511 8.0587C77.9575 8.0587 77.4655 7.96363 77.0462 7.76789C76.6269 7.57775 76.3138 7.29253 76.1125 6.92902C75.9113 6.55992 75.8442 6.11253 75.9169 5.57565H77.5829C77.5382 5.81053 77.5606 6.02305 77.65 6.19641C77.7395 6.37537 77.8736 6.50959 78.0637 6.61025C78.2482 6.70532 78.4663 6.75566 78.7067 6.75566C78.9638 6.75566 79.1931 6.71092 79.3775 6.61585C79.5676 6.52077 79.713 6.39774 79.8192 6.22997C79.9254 6.06779 79.9758 5.87764 79.9758 5.66513C79.9758 5.51413 79.9422 5.3911 79.8695 5.27925C79.7969 5.17299 79.7074 5.07792 79.59 4.98844C79.4726 4.90456 79.344 4.82626 79.1875 4.75915C79.0365 4.69204 78.8688 4.63053 78.6899 4.56901C78.511 4.50749 78.3321 4.44597 78.1588 4.37887C77.6668 4.19991 77.2922 3.95384 77.0238 3.64625C76.7555 3.33308 76.6213 2.96398 76.6213 2.53336C76.6213 2.01885 76.7555 1.57705 77.0182 1.19676C77.281 0.816475 77.6444 0.525667 78.1085 0.313154C78.5725 0.100641 79.098 -0.00561523 79.6795 -0.00561523C80.1994 -0.00561523 80.6411 0.083864 81.0156 0.25723C81.3846 0.430596 81.6642 0.687849 81.8543 1.0234C82.0443 1.35894 82.1058 1.77278 82.0388 2.26492H80.3727C80.4118 2.06359 80.3895 1.89023 80.3112 1.74482C80.2329 1.59942 80.1155 1.49316 79.959 1.41487C79.8025 1.34217 79.6236 1.30302 79.4167 1.30302C79.1931 1.30302 78.9974 1.34217 78.8352 1.42046C78.6675 1.49875 78.5389 1.6106 78.4439 1.75041C78.3489 1.89023 78.3041 2.05241 78.3041 2.24255C78.3041 2.37118 78.3321 2.47743 78.3824 2.5781C78.4327 2.67317 78.511 2.75706 78.606 2.83535C78.7011 2.90805 78.8185 2.98075 78.9527 3.04227C79.0868 3.10379 79.2322 3.1653 79.3887 3.22682C79.5453 3.28834 79.7074 3.34426 79.8807 3.40578C80.1267 3.49526 80.3559 3.60152 80.5684 3.72455C80.7808 3.84758 80.9765 3.99299 81.1386 4.16076C81.3064 4.32853 81.435 4.51868 81.53 4.73119C81.625 4.9437 81.6698 5.18977 81.6698 5.4638C81.6698 5.98949 81.5356 6.44807 81.2616 6.83395C80.9933 7.21983 80.6187 7.52182 80.1435 7.73434C79.6683 7.94685 79.126 8.0587 78.511 8.0587ZM49.495 12.6333H43.8595L42.8028 18.7906L49.495 12.6333ZM89.2844 12.6333H79.1707L82.4692 22.8675L89.2844 12.6333ZM140.412 12.6333H133.507L135.671 19.9259L140.412 12.6333ZM155.356 12.6333H149.486L150.006 24.8305L155.356 12.6333ZM165.542 12.6333H159.795L160.695 24.7633L165.542 12.6333ZM131.668 30.7249L132.82 24.3383L128.766 12.6333H128.755L128.157 16.0839H123.069L120.492 30.7249H131.668ZM146.55 30.7249L145.069 12.8402L137.001 24.4502L135.872 30.7249H146.55ZM157.318 30.7249L156.34 19.3275L151.258 30.7249H157.318ZM164.911 30.7249L174.678 12.6333H170.06L162.026 30.7249H164.911ZM178.155 30.7249L177.512 26.827H171.418L169.378 30.7249H178.161H178.155ZM4.42788 30.7249L7.60343 12.6333H3.41036L3.48304 12.2027L3.55572 11.7721L3.6284 11.3415H190.17L190.097 11.7721L190.024 12.2027L189.952 12.6333H179.178L182.561 30.7249H186.765L186.692 31.1555L186.619 31.5861L186.547 32.0168H0L0.0726798 31.5861L0.14536 31.1555L0.218039 30.7249H4.4167H4.42788ZM24.6608 30.7249C20.5293 29.7854 17.4487 26.0888 17.4487 21.6763C17.4487 17.2639 20.5069 13.5952 24.6105 12.6389H11.8133L9.23034 27.3023H16.8226L16.2244 30.7249H24.6608ZM36.4797 30.7249L39.6552 12.6333H28.8427C32.9463 13.5896 36.0045 17.2751 36.0045 21.6707C36.0045 26.0664 32.924 29.7798 28.7924 30.7193H36.4797V30.7249ZM46.6716 30.7249L43.306 23.08L41.8021 24.4669L40.6783 30.7249H46.666H46.6716ZM59.4409 30.7249C55.3093 29.7854 52.2288 26.0888 52.2288 21.6763C52.2288 17.2639 55.287 13.5952 59.3906 12.6389H54.8341L46.7443 19.965L51.6027 30.7305H59.4353L59.4409 30.7249ZM71.2598 30.7249L74.4633 12.6333H63.6228C67.7264 13.5896 70.7846 17.2751 70.7846 21.6707C70.7846 26.0664 67.7041 29.7798 63.5725 30.7193H71.2598V30.7249ZM86.6679 30.7249L88.4849 20.4348L83.1681 28.2418H79.9422L77.309 20.3118L75.4696 30.7249H86.6735H86.6679ZM101.612 30.7249C97.4804 29.7854 94.3999 26.0888 94.3999 21.6763C94.3999 17.2639 97.4581 13.5952 101.562 12.6389H94.0477L90.8721 30.7305H101.618L101.612 30.7249ZM105.799 12.6333C109.903 13.5896 112.961 17.2751 112.961 21.6707C112.961 26.0664 109.881 29.7798 105.749 30.7193H116.288L118.865 16.0783H113.8L114.426 12.6277H105.794L105.799 12.6333Z" fill="white"/>
</svg>
