<svg version="1.2" xmlns="http://www.w3.org/2000/svg" viewBox="0 0 1137 341" width="1137" height="341">
	<title>color</title>
	<style>
		.s0 { fill: none } 
		.s1 { fill: #e86537 } 
		.s2 { fill: #3e3d3f } 
		.s3 { opacity: .7;fill: none } 
	</style>
	<g>
		<path class="s0" d="m-7 31.6c0 17.5-14.2 31.7-31.6 31.7-17.5 0-31.7-14.2-31.7-31.7h-19.7c0 28.4 23 51.4 51.4 51.4 28.4 0 51.4-23 51.4-51.4h-19.8z"/>
		<path class="s0" d="m-38.6 0c-17.5 0-31.7 14.2-31.7 31.6h63.3c0-17.4-14.1-31.6-31.6-31.6z"/>
	</g>
	<g>
		<path class="s0" d="m1209.9 288.6c0 17.5-14.2 31.7-31.7 31.7-17.4 0-31.6-14.2-31.6-31.7h-19.7c0 28.4 23 51.4 51.3 51.4 28.4 0 51.4-23 51.4-51.4h-19.7z"/>
		<path class="s0" d="m1178.2 257c-17.4 0-31.6 14.2-31.6 31.6h63.3c0-17.4-14.2-31.6-31.7-31.6z"/>
	</g>
	<g>
		<path class="s1" d="m178.8 154.2c0 35-28.4 63.3-63.3 63.3-34.9 0-63.3-28.3-63.3-63.3h-39.4c0 56.8 45.9 102.8 102.7 102.8 56.8 0 102.7-46 102.7-102.8z"/>
		<path class="s1" d="m115.5 91c-34.9 0-63.3 28.3-63.3 63.2h126.6c0-34.9-28.4-63.2-63.3-63.2z"/>
	</g>
	<path class="s2" d="m249.2 154.2h12.2c0 8.4 5.8 13.4 15.7 13.4 9.9 0 15.4-3.7 15.4-10.1 0-8.1-8.5-9.6-17.7-11.2-11.1-1.8-23.7-4-23.7-17.9 0-11.7 9.6-18.8 26-18.8 16.3 0 25.9 7.9 25.9 21.2h-12.2c0-7.9-5-12.7-13.7-12.7-8.8 0-13.5 3.5-13.5 9.3 0 6.7 7.7 8.1 16.4 9.6 11.5 2.1 25 4.4 25 19.3 0 12.5-10.5 19.9-27.9 19.9-17.5 0-27.9-8.1-27.9-22z"/>
	<path class="s2" d="m375 110.9v64h-12.8v-22.2h-0.3c0 14.8-7.7 23.5-20.8 23.5-14 0-22.3-9.6-22.3-25.8v-39.5h12.9v39.1c0 10 5.3 15.8 14.3 15.8 10.1 0 16.2-7.4 16.2-20v-34.9c0 0 12.8 0 12.8 0z"/>
	<path class="s2" d="m451.3 135.5v39.4h-12.9v-39c0-10.1-5.5-15.8-14.9-15.8-10.6 0-16.8 7.4-16.8 20v34.9h-12.9v-64.1h12.9v22.3h0.2c0-14.8 8-23.6 21.5-23.6 14.4 0 22.9 9.7 22.9 25.9z"/>
	<path class="s2" d="m512.8 111.6l-3.8 11.9c-2.5-1.4-5.9-2.3-9.3-2.3-11 0-17.5 8.6-17.5 23.3v30.5h-12.8v-64.1h12.8v25.1h0.3c0-16.6 7.6-26.4 20.4-26.4 3.6 0 7.4 0.8 9.9 2z"/>
	<path class="s2" d="m523 83h12.8v14.5h-12.8zm0 28h12.8v64h-12.8z"/>
	<path class="s2" d="m550.1 154.2h12.2c0 8.4 5.8 13.4 15.7 13.4 9.9 0 15.4-3.7 15.4-10.1 0-8.1-8.5-9.6-17.7-11.2-11.1-1.8-23.7-4-23.7-17.9 0-11.7 9.7-18.8 26-18.8 16.3 0 26 7.9 26 21.2h-12.3c0-7.9-5-12.7-13.7-12.7-8.8 0-13.5 3.5-13.5 9.3 0 6.7 7.7 8.1 16.5 9.6 11.4 2.1 24.9 4.4 24.9 19.3 0 12.5-10.4 19.9-27.9 19.9-17.5 0-27.9-8.1-27.9-22z"/>
	<path class="s2" d="m677.4 144.7h-48.1c0.5 13.5 7.2 21.5 17.9 21.5 9.3 0 15.9-5.1 17.6-13.9h12.6c-2.2 15.1-13.4 23.9-30.2 23.9-19.2 0-30.4-12.3-30.4-33.3 0-20.9 11.2-33.3 30.4-33.3 19.1 0 30.2 12.4 30.2 33.3 0 0 0 1.8 0 1.8zm-48-5.4h35.2c-1-12.4-7.3-19.6-17.5-19.6-10.1 0-16.7 7.2-17.7 19.6z"/>
	<g>
		<path class="s2" d="m706.7 154.2h12.1c0 8.4 5.8 13.4 15.7 13.4 9.8 0 15.3-3.7 15.3-10.2 0-8-8.4-9.4-17.7-11.1-11-1.8-23.5-4-23.5-17.8 0-11.6 9.6-18.7 25.9-18.7 16.2 0 25.8 7.8 25.8 21.1h-12.1c0-7.9-5-12.6-13.8-12.6-8.7 0-13.4 3.4-13.4 9.2 0 6.6 7.7 8.1 16.4 9.6 11.4 2 24.8 4.3 24.8 19.2 0 12.4-10.3 19.8-27.7 19.8-17.4 0-27.8-8-27.8-21.9z"/>
		<path class="s2" d="m831.8 111.1l-27.9 93.2h-13.7l8.8-29.4h-10.6l-19.2-63.8h13.8l17.4 62.9h0.3l17.4-62.9c0 0 13.7 0 13.7 0z"/>
		<path class="s2" d="m838.5 154.2h12.2c0 8.4 5.8 13.4 15.6 13.4 9.9 0 15.4-3.7 15.4-10.2 0-8-8.5-9.4-17.7-11.1-11-1.8-23.5-4-23.5-17.8 0-11.6 9.6-18.7 25.8-18.7 16.3 0 25.9 7.8 25.9 21.1h-12.2c0-7.9-5-12.6-13.7-12.6-8.7 0-13.4 3.4-13.4 9.2 0 6.6 7.7 8.1 16.4 9.6 11.4 2 24.8 4.3 24.8 19.2 0 12.4-10.4 19.8-27.8 19.8-17.4 0-27.7-8-27.8-21.9z"/>
		<path class="s2" d="m923.9 120.4v34.7c0 6.8 4.1 10.7 11.2 10.7 3.1 0 6.4-0.8 8.9-2.1v9.7c-3.5 1.7-8.4 2.7-13 2.7-12.4 0-19.9-7.3-19.9-19.7v-36h-9.8v-9.3h10.7v-21.8h12.8v5.4c0 7.4-4.6 13.3-12.3 16.1v0.3h32.4v9.4h-21z"/>
		<path class="s2" d="m1012.9 144.8h-47.9c0.5 13.4 7.2 21.3 17.8 21.3 9.4 0 15.9-5.1 17.6-13.8h12.5c-2.2 15-13.3 23.8-30.1 23.8-19 0-30.2-12.3-30.2-33.1 0-20.9 11.2-33.2 30.2-33.2 19.1 0 30.1 12.3 30.1 33.2v1.8zm-47.7-5.4h35c-1-12.4-7.3-19.6-17.4-19.6-10.1 0-16.6 7.2-17.6 19.6z"/>
		<path class="s2" d="m1126.8 134.9v39.9h-12.8l0.1-39.5c0-9.6-5.3-15.1-14.3-15.1-10.1 0-16 7.1-16 19.3v35.3h-12.8v-39.5c0-9.6-5.2-15.1-14.2-15.1-10.1 0-16.1 7.1-16.1 19.3v35.3h-12.8v-63.7h12.8v21.6h0.3c0-14.3 7.8-22.9 21-22.9 13.1 0 21.8 8.9 21.8 22.9h0.3c0-14.3 7.7-22.9 20.6-22.9 14 0 22.2 9.3 22.2 25.1z"/>
	</g>
	<path class="s3" d="m1117.8 174.9h-13.7l15.9 35.3 6.8-15.2z"/>
	<g>
		<g>
			<path fill-rule="evenodd" class="s2" d="m1004.7 217.9l-5.5 17.1h-0.9l-5.2-17h-5.4l-5.2 17h-0.9l-5.5-17.1h-7.9l9.5 27.4h6.9l5.8-16.7 5.8 16.7h6.9l9.6-27.4h-8z"/>
			<path class="s2" d="m1042.3 225.9q-1.2-2.6-3.2-4.7c-1.4-1.3-3-2.4-4.9-3.1-1.9-0.8-4.1-1.1-6.2-1.1-2.2 0-4.3 0.3-6.2 1.1-1.9 0.8-3.5 1.8-4.9 3.1q-2 2.1-3.1 4.7c-0.8 1.8-1.1 3.7-1.1 5.7 0 2 0.3 3.9 1.1 5.7q1.1 2.6 3.1 4.6c1.4 1.4 3.1 2.4 4.9 3.2 1.9 0.8 4 1.1 6.1 1.1 2.2 0 4.3-0.3 6.3-1.1 1.7-0.7 3.3-1.6 4.6-2.9l0.4-0.3q1.9-1.9 2.9-4.3h-8.3q0 0-0.1 0.1-1.1 1.1-2.5 1.7c-1 0.5-2.1 0.6-3.2 0.6q-1.6 0.1-3.1-0.6-1.4-0.6-2.5-1.7-1.1-1.2-1.7-2.7-0.1-0.3-0.2-0.6l-0.2-0.7h22.9q0.2-1 0.2-2.1 0-1.8-0.4-3.5-0.3-1.1-0.7-2.2zm-21.8 2.6l0.4-0.8q0.5-1.2 1.5-2.2 1.1-1.1 2.5-1.7 1.5-0.6 3.1-0.6c1.1 0 2.2 0.2 3.1 0.6q1.5 0.6 2.6 1.7 0.9 1 1.5 2.2l0.3 0.8z"/>
			<path class="s2" d="m1061.2 216.9c-7.8 0-14.2 6.4-14.2 14.3v14.1h7.6v-14.7c0-3.6 3-6.6 6.6-6.6 3.6 0 6.5 3 6.5 6.6v14.7h7.7v-14.2c0-7.8-6.4-14.2-14.2-14.2z"/>
			<path class="s2" d="m1108.3 225.9q-1.1-2.6-3.1-4.7c-1.4-1.3-3.1-2.4-4.9-3.1-2-0.8-4.1-1.1-6.2-1.1-2.2 0-4.3 0.3-6.3 1.1-1.8 0.8-3.4 1.8-4.8 3.1q-2.1 2.1-3.2 4.7c-0.7 1.8-1.1 3.7-1.1 5.7 0 2 0.4 3.9 1.2 5.7q1.1 2.6 3.1 4.6c1.4 1.4 3 2.4 4.8 3.2 2 0.8 4.1 1.1 6.2 1.1 2.1 0 4.3-0.3 6.3-1.1 1.7-0.7 3.3-1.6 4.6-2.9l0.4-0.3q1.8-1.9 2.9-4.3h-8.3q-0.1 0-0.1 0.1-1.1 1.1-2.6 1.7c-0.9 0.5-2 0.6-3.1 0.6q-1.6 0.1-3.1-0.6-1.4-0.6-2.5-1.7-1.2-1.2-1.7-2.7-0.1-0.3-0.2-0.6l-0.3-0.7h23q0.2-1 0.2-2.1 0-1.8-0.4-3.5-0.3-1.1-0.8-2.2zm-21.7 2.6l0.4-0.8q0.5-1.2 1.5-2.2 1.1-1.1 2.5-1.7 1.5-0.6 3.1-0.6c1.1 0 2.1 0.2 3.1 0.6q1.5 0.6 2.6 1.7 0.9 1 1.5 2.2l0.3 0.8z"/>
			<path class="s2" d="m1126.4 224v-6.1h-6v-8.9h-7.5v26.5c0 4.7 3.4 8.8 8.1 9.7q0.9 0.1 1.8 0.1h3.6v-6.1h-2.3c-2 0-3.7-1.7-3.7-3.7v-11.5c0 0 6 0 6 0z"/>
		</g>
		<g>
			<path class="s2" d="m911.9 246.2q-2.9 0-5.1-0.8-2.3-0.9-4-2.4-1.6-1.4-2.8-3.3l0.7-0.9v6.5h-4v-40.5h4.2v19.6l-0.8-0.9q1.8-2.8 4.7-4.6 2.9-1.7 7-1.8 4.2 0.1 7.3 2 3.1 2 4.8 5.3 1.8 3.3 1.8 7.3 0 3-1 5.6-1.1 2.6-2.9 4.6-1.8 2-4.3 3.2-2.6 1.1-5.6 1.1zm-0.8-3.9q3 0 5.3-1.3 2.3-1.3 3.6-3.7 1.3-2.4 1.3-5.6 0-3.3-1.3-5.7-1.3-2.4-3.6-3.7-2.3-1.3-5.3-1.3-3 0-5.3 1.3-2.3 1.3-3.6 3.7-1.3 2.4-1.3 5.7 0 3.2 1.3 5.6 1.3 2.4 3.6 3.7 2.3 1.3 5.3 1.3z"/>
			<path class="s2" d="m933.3 258q-1.2 0-2.4-0.3-1.2-0.3-2.5-1.1l1-3.7q0.9 0.6 1.9 0.9 1 0.3 1.7 0.3 2.2 0 3.4-1.1 1.2-1.1 1.9-3.4l1.3-3.6-10.9-28h4.7l8.6 22.9 8.4-22.9h4.4l-12.1 32.1q-1.2 3.2-2.6 4.9-1.4 1.7-3.1 2.3-1.7 0.7-3.7 0.7z"/>
		</g>
	</g>
</svg>