<svg version="1.1" id="Warstwa_1" xmlns="http://www.w3.org/2000/svg" x="0" y="0" viewBox="0 0 450.8 75.9" xml:space="preserve"><style>.st0{display:none}</style><g id="Warstwa_1_1_"><path d="M126.8 20h9.5v8.8h5.9v6.1h-5.9v13.2c0 1.1.3 1.9.9 2.3.6.3 1.4.5 2.5.5h1.2c.4 0 .8-.1 1.2-.1v7c-.9 0-1.7.1-2.6.2-.9.1-1.8.1-2.6.1-2 0-3.7-.2-5-.5s-2.4-.9-3.1-1.7c-.8-.8-1.3-1.8-1.6-3.1-.3-1.3-.4-2.9-.4-4.9V20zm20 8.8h9.2v5.1h.1c.7-1.9 1.8-3.3 3.3-4.2 1.5-.9 3.3-1.4 5.4-1.4.4 0 .8 0 1.1.1.4 0 .7.1 1.1.2v8.7c-.6-.2-1.2-.3-1.8-.4s-1.2-.1-1.8-.1c-1.2 0-2.2.2-3.1.6-.9.4-1.6.9-2.2 1.5-.6.6-1.1 1.4-1.4 2.2-.3.8-.4 1.7-.4 2.6v14.4h-9.5V28.8zm22.2 8.9c.1-1.9.5-3.5 1.3-4.7.8-1.3 1.9-2.3 3.2-3 1.3-.8 2.8-1.3 4.3-1.6 1.6-.3 3.2-.4 4.9-.4 1.7 0 3.4.1 5 .4 1.6.2 3.1.7 4.3 1.4 1.3.7 2.3 1.7 3 3 .8 1.3 1.1 2.9 1.1 5v12.6c0 1.2.1 2.5.1 3.8.1 1.3.4 2.5 1 3.7h-9.6c-.2-.4-.3-.9-.4-1.3 0-.4-.1-.9-.2-1.4-1.2 1.3-2.7 2.2-4.4 2.8-1.7.5-3.4.8-5.2.8a16 16 0 0 1-3.9-.5c-1.2-.4-2.3-.9-3.2-1.6s-1.6-1.6-2.1-2.7-.8-2.4-.8-3.9c0-1.6.3-2.9.8-3.9s1.2-1.9 2.1-2.6c.9-.7 1.9-1.2 3.1-1.6 1.2-.4 2.4-.7 3.6-.9 1.2-.2 2.5-.4 3.7-.6 1.3-.1 2.4-.3 3.5-.6.8-.2 1.4-.5 1.9-.8.4-.4.7-1 .7-1.9 0-.6-.1-1-.5-1.4-.3-.4-.7-.7-1.1-.9-.4-.3-.9-.4-1.5-.5-.5-.1-1.1-.2-1.5-.2-2.7 0-4.3 1.2-4.8 3.6H169v-.1zm8.3 11.8c0 1.2.4 2 1.2 2.5s1.7.8 2.8.8c2.3 0 3.8-.7 4.7-2 .9-1.3 1.2-3.5 1.1-6.5-.7.4-1.6.7-2.6.9-1.1.2-2.2.4-3.2.7-1.1.3-2 .7-2.8 1.2-.8.4-1.2 1.2-1.2 2.4m61.3-31.6h9.5v7.3h-9.5zm0 10.9h9.5v29h-9.5zm32.6 10.6c0-.6-.1-1.2-.4-1.7s-.6-1-1-1.3c-.4-.4-.9-.7-1.5-.9-.6-.2-1.1-.3-1.7-.3-1.3 0-2.4.3-3.2.8-.8.5-1.4 1.2-1.8 2-.4.8-.7 1.7-.9 2.7-.2 1-.2 2-.2 3 0 .9.1 1.9.3 2.8s.5 1.7 1 2.4 1.1 1.3 1.8 1.7c.7.4 1.6.7 2.6.7 1.7 0 2.9-.4 3.8-1.3.9-.9 1.4-2.1 1.6-3.7h9.2c-.2 1.9-.7 3.7-1.6 5.2-.8 1.5-1.9 2.8-3.2 3.9-1.3 1-2.8 1.8-4.4 2.4-1.7.5-3.5.8-5.4.8-2.2 0-4.2-.4-6.1-1.1-1.8-.7-3.4-1.7-4.8-3s-2.4-2.9-3.2-4.7c-.8-1.8-1.1-3.9-1.1-6.1 0-2.3.3-4.4 1.1-6.4.7-1.9 1.7-3.6 3-5s2.9-2.5 4.8-3.3c1.9-.8 4-1.2 6.3-1.2 1.8 0 3.5.2 5.2.7s3.1 1.2 4.4 2.2c1.3.9 2.4 2.1 3.2 3.6.8 1.4 1.3 3.1 1.5 5l-9.3.1zM283.7 20h9.5v8.8h5.9v6.1h-5.9v13.2c0 1.1.3 1.9.9 2.3.6.3 1.4.5 2.5.5h1.2c.4 0 .8-.1 1.2-.1v7c-.8 0-1.7.1-2.6.2-.9.1-1.8.1-2.6.1-2 0-3.7-.2-5-.5s-2.4-.9-3.1-1.7c-.8-.8-1.3-1.8-1.6-3.1-.3-1.3-.5-2.9-.5-4.9V20h.1zm20 8.8h9.2v5.1h.1c.7-1.9 1.8-3.3 3.4-4.2 1.5-.9 3.3-1.4 5.4-1.4.4 0 .8 0 1.1.1.4 0 .7.1 1.1.2v8.7c-.6-.2-1.2-.3-1.8-.4s-1.2-.1-1.8-.1c-1.2 0-2.2.2-3.1.6-.9.4-1.6.9-2.2 1.5-.6.6-1.1 1.4-1.4 2.2-.3.8-.4 1.7-.4 2.6v14.4h-9.6V28.8zm30.5 16.8c.1 2 .7 3.6 1.8 4.8 1.1 1.2 2.7 1.8 4.7 1.8 1.2 0 2.2-.3 3.2-.8s1.7-1.3 2.2-2.4h8.9c-.4 1.7-1.1 3.1-2.1 4.3-1 1.2-2.1 2.2-3.4 3s-2.7 1.4-4.3 1.7c-1.5.4-3.1.6-4.7.6-2.3 0-4.5-.3-6.5-1s-3.6-1.7-5-3-2.5-2.9-3.2-4.9c-.8-1.9-1.1-4.1-1.1-6.5 0-2.2.4-4.3 1.2-6.1.8-1.9 1.9-3.5 3.4-4.8 1.4-1.3 3.1-2.4 5-3.2 1.9-.8 3.9-1.1 6-1.1 2.6 0 4.9.5 6.8 1.4 1.9.9 3.5 2.2 4.8 3.8 1.3 1.6 2.2 3.5 2.8 5.6.6 2.1.8 4.4.7 6.9l-21.2-.1zm11.8-5.3c-.1-1.6-.6-3-1.7-4.2-1-1.2-2.4-1.7-4-1.7-1.7 0-3 .5-4.1 1.6-1.1 1.1-1.7 2.5-2 4.3H346zm11.7-11.5h9.2v4h.1c.4-.7 1-1.4 1.7-2s1.4-1.1 2.2-1.5 1.7-.7 2.6-1c.9-.2 1.8-.3 2.6-.3 2.4 0 4.3.4 5.7 1.2 1.4.8 2.4 1.7 3.1 2.9.7 1.1 1.1 2.3 1.3 3.7.2 1.3.3 2.5.3 3.5v18.6H377V41c0-1-.1-1.8-.4-2.6-.3-.8-.8-1.4-1.4-1.8-.7-.5-1.6-.7-2.9-.7-.9 0-1.7.2-2.3.5-.7.4-1.2.8-1.6 1.4-.4.6-.7 1.2-.9 2-.2.7-.3 1.5-.3 2.3v15.8h-9.5V28.8zm62.2 29h-9.1v-3.4h-.1c-1.9 2.8-4.6 4.2-8 4.2-2.3 0-4.2-.5-5.9-1.3-1.6-.9-3-2.1-4-3.6s-1.8-3.2-2.3-5.1-.8-3.9-.8-5.9c0-1.9.2-3.7.8-5.5.5-1.8 1.3-3.3 2.3-4.7 1-1.4 2.3-2.5 3.8-3.3s3.3-1.2 5.4-1.2c3.5 0 6.3 1.3 8.3 4h.1V18h9.5v39.8zm-14.8-22.6c-1.1 0-2 .2-2.8.7-.7.5-1.3 1.1-1.8 1.8-.4.8-.8 1.6-1 2.5s-.3 1.8-.3 2.8.1 2 .3 3c.2 1 .5 1.9 1 2.7.5.8 1 1.5 1.8 2s1.7.8 2.8.8c1.2 0 2.1-.2 2.8-.8.7-.5 1.3-1.1 1.7-1.9s.7-1.6.9-2.6.2-1.9.2-2.8c0-1-.1-2.1-.3-3-.2-1-.5-1.8-1-2.6-.4-.8-1-1.3-1.7-1.8s-1.6-.8-2.6-.8m26.5 13.1c0 .8.1 1.4.4 1.9s.7 1 1.1 1.3c.5.3 1 .6 1.6.8.6.2 1.3.3 1.9.3.4 0 .9-.1 1.5-.2.5-.1 1-.3 1.4-.5.5-.2.8-.6 1.1-.9.3-.4.5-.9.5-1.4 0-.6-.2-1-.5-1.4-.3-.3-.7-.6-1.2-.9-.5-.2-1-.4-1.5-.5s-1-.2-1.4-.3c-1.5-.4-3-.7-4.6-1-1.6-.3-3-.8-4.4-1.4-1.3-.6-2.4-1.5-3.2-2.5-.8-1.1-1.3-2.6-1.3-4.6 0-1.8.4-3.2 1.3-4.3.8-1.1 1.9-2 3.2-2.7 1.3-.7 2.7-1.2 4.3-1.4 1.6-.3 3.1-.4 4.5-.4 1.6 0 3.2.1 4.7.4 1.6.3 2.9.8 4.2 1.4 1.3.7 2.3 1.7 3.1 2.9.8 1.2 1.2 2.8 1.3 4.7h-8.8c0-1.2-.4-2-1.2-2.5-.7-.5-1.8-.7-3-.7-.4 0-.9 0-1.3.1-.5 0-.9.1-1.3.3-.4.2-.8.4-1 .7-.3.3-.4.7-.4 1.2 0 .7.3 1.2 1.1 1.7.7.4 1.6.8 2.7 1.1 1.1.3 2.2.5 3.5.8 1.3.2 2.4.4 3.5.7 1.5.3 2.6.8 3.6 1.4s1.7 1.3 2.3 2.1c.6.7.9 1.5 1.2 2.3.2.8.3 1.5.3 2.1 0 1.9-.4 3.6-1.3 4.9-.8 1.3-1.9 2.4-3.2 3.2-1.3.8-2.8 1.4-4.5 1.7-1.7.4-3.3.5-4.9.5-1.7 0-3.4-.2-5.1-.5s-3.2-.9-4.5-1.7c-1.3-.8-2.4-1.9-3.2-3.2-.8-1.3-1.3-3-1.4-5h8.9v-.5z"/><path d="M234.5 28.8h-4.8v-1.3c0-1.3.3-2.1 1-2.4.6-.3 1.5-.5 2.6-.5.4 0 .8.1 1.3.1V18h-1c-.8 0-1.5-.1-2.3-.1-2 0-3.7.2-5.1.5-1.4.4-2.6.9-3.4 1.8-.9.8-1.5 2-1.9 3.4s-.6 3.1-.6 5.2v29h9.5V34.9h4.8v-6.1h-.1zm-18.7 0H211v-1.3c0-1.3.3-2.1.9-2.4s1.5-.5 2.6-.5c.4 0 .8.1 1.3.1V18h-1c-.8 0-1.5-.1-2.3-.1-2 0-3.7.2-5.1.5-1.4.4-2.6.9-3.4 1.8-.9.8-1.5 2-1.9 3.4s-.6 3.1-.6 5.2v29h9.5V34.9h4.8v-6.1z"/></g><g id="Warstwa_2_1_"><path d="M0 11.8h46.9v11.7H0z"/><path d="M27.4 23.1h19.5V70H27.4zm25.3-11.3h47v11.7h-47z"/><path d="M52.7 23.1h19.6V70H52.7z"/><path d="M0 23.1h27.4V29H0zm72.4 0h27.4V29H72.4zM27.4 70h19.5v5.9H27.4zm25.3 0h19.6v5.9H52.7z" fill="#3dbce9"/><path d="M0 5.9h46.9v6.3H0zm52.7 0h47v6.3h-47z" fill="#ee2650"/><path d="M0 0h46.9v6.3H0zm52.7 0h47v6.3h-47z" fill="#ffd400"/></g></svg>